<?xml version="1.0" encoding="UTF-8" standalone="no"?>
<!--part of the matt icon theme by sixsixfive released under CC0 (https://creativecommons.org/publicdomain/zero/1.0/) on openclipart-->
<svg xmlns="http://www.w3.org/2000/svg" xmlns:xlink="http://www.w3.org/1999/xlink" viewBox="0 0 128 128">
 <defs id="0">
  <linearGradient id="2">
   <stop id="7" stop-color="#f0ff80"/>
   <stop id="8" offset="1" stop-color="#8bb300"/>
  </linearGradient>
  <linearGradient id="3">
   <stop id="9" stop-color="#eee"/>
   <stop id="A" offset="1" stop-color="#eee" stop-opacity="0"/>
  </linearGradient>
  <linearGradient x1="7.438" x2="120.63" id="4" xlink:href="#2" gradientUnits="userSpaceOnUse"/>
  <radialGradient cx="23.987" cy="10.853" r="56.16" id="5" xlink:href="#3" gradientUnits="userSpaceOnUse" gradientTransform="matrix(0,2.2729686,-2.2293307,0,8.5534597,-1.7792288)"/>
 </defs>
 <g id="1">
  <g transform="matrix(-1,0,0,1,128,0)" id="6">
   <path d="m 118.14842,35.975001 c -0.0747,-0.762327 -0.71537,-1.343711 -1.48129,-1.344231 l -39.994662,0 -0.02743,-23.290841 c 0.0026,-0.57881 -0.326953,-1.097215 -0.850366,-1.344238 -0.523416,-0.2470233 -1.145904,-0.1779279 -1.59101,0.192034 L 10.37131,63.325971 c -0.341957,0.287001 -0.5265185,0.705774 -0.5211938,1.152197 0.00531,0.446423 0.1999218,0.87342 0.5486208,1.152198 l 63.832356,52.205524 c 0.445601,0.35289 1.05061,0.40944 1.563578,0.16459 0.512966,-0.24484 0.844443,-0.74839 0.850366,-1.31679 l 0.02743,-23.290855 39.994663,0.02743 c 0.39697,-0.0021 0.76426,-0.155639 1.04239,-0.438932 0.27812,-0.283293 0.44405,-0.67292 0.4389,-1.069898 l 0,-55.799271 c 0.002,-0.0457 0.002,-0.09147 0,-0.137166 z" id="B" fill="#007880" fill-rule="evenodd" stroke-width="3.393"/>
   <path d="m 118.14842,35.975001 c -0.0747,-0.762327 -0.71537,-1.343711 -1.48129,-1.344231 l -39.994662,0 -0.02743,-23.290841 c 0.0026,-0.57881 -0.326953,-1.097215 -0.850366,-1.344238 -0.523416,-0.2470233 -1.145904,-0.1779279 -1.59101,0.192034 L 10.37131,63.325971 c -0.341957,0.287001 -0.5265185,0.705774 -0.5211938,1.152197 0.00531,0.446423 0.1999218,0.87342 0.5486208,1.152198 l 63.832356,52.205524 c 0.445601,0.35289 1.05061,0.40944 1.563578,0.16459 0.512966,-0.24484 0.844443,-0.74839 0.850366,-1.31679 l 0.02743,-23.290855 39.994663,0.02743 c 0.39697,-0.0021 0.76426,-0.155639 1.04239,-0.438932 0.27812,-0.283293 0.44405,-0.67292 0.4389,-1.069898 l 0,-55.799271 c 0.002,-0.0457 0.002,-0.09147 0,-0.137166 z" id="C" fill="#638000" fill-rule="evenodd" stroke-width="3.393"/>
   <path d="m 33.9375,6.46875 0,43.5 A 2.4825178,2.4825178 0 0 1 31.46875,52.4375 L 7.4375,52.46875 64.53125,121.09375 120.625,52.46875 96.5625,52.4375 a 2.4825178,2.4825178 0 0 1 -2.46875,-2.46875 l 0.03125,-43.5 -60.1875,0 z" transform="matrix(0,0.9025,-0.9025,0,121.76,6.2400004)" id="D" fill="url(#4)" fill-rule="evenodd" stroke-width="3.393"/>
   <path d="m 34.65625,7.1875 0,42.78125 a 3.1782877,3.1782877 0 0 1 -3.1875,3.1875 L 8.90625,53.1875 64.5,120 119.125,53.1875 96.5625,53.15625 a 3.1782877,3.1782877 0 0 1 -3.1875,-3.1875 l 0.03125,-42.78125 -58.75,0 z" transform="matrix(0,0.9025,-0.9025,0,121.76,6.2400004)" id="E" fill="none" stroke="url(#5)" stroke-linejoin="round" stroke-linecap="round" stroke-width="2.1" stroke-miterlimit="10"/>
  </g>
 </g>
</svg>
